<?xml version="1.0" encoding="utf-8"?>
<!-- Generator: Adobe Illustrator 16.0.0, SVG Export Plug-In . SVG Version: 6.00 Build 0)  -->
<!DOCTYPE svg PUBLIC "-//W3C//DTD SVG 1.1//EN" "http://www.w3.org/Graphics/SVG/1.1/DTD/svg11.dtd">
<svg version="1.1" id="Layer_1" xmlns="http://www.w3.org/2000/svg" xmlns:xlink="http://www.w3.org/1999/xlink" x="0px" y="0px"
	 width="605px" height="387px" viewBox="0 0 605 387" enable-background="new 0 0 605 387" xml:space="preserve">
<g id="MobileMe_4_">
	<path fill="#DA8F1D" d="M401.229,137.457c0,16.741-13.473,30.301-30.076,30.301h-93.059c-16.604,0-30.07-13.56-30.07-30.301
		c0-15.106,10.982-27.629,25.344-29.915c-0.18-1.069-0.279-2.149-0.279-3.28c0-10.604,8.528-19.2,19.057-19.2
		c4.697,0,9.002,1.714,12.318,4.56c5.914-13.436,13.498-25.686,34.779-25.686c25.81,0,38.041,20.051,38.041,41.208
		c0,0.882-0.038,1.764-0.1,2.634C390.904,110.585,401.229,122.81,401.229,137.457z"/>
</g>
<g>
	<g id="XMLID_5978_">
		<g id="XMLID_6012_">
			<g id="XMLID_6056_">
				<path d="M165.958,156.296c0,2.319-1.401,4.2-3.128,4.2H32.683c-1.727,0-3.128-1.881-3.128-4.2V72.8c0-2.322,1.401-4.2,3.128-4.2
					h130.146c1.727,0,3.128,1.878,3.128,4.2V156.296z"/>
			</g>
			<g id="XMLID_6055_">
				<rect x="34.993" y="73.64" fill="#FDFDFD" width="125.896" height="77.614"/>
			</g>
			<g id="XMLID_6037_">
				<g id="XMLID_6049_">
					<g id="XMLID_6054_">
						<path d="M6.323,161.764c0,0-1.135,2.112,6.928,3.875h168.801c0,0,5.648-0.361,7.134-3.024l0.008-1.458L6.323,161.764z"/>
					</g>
					<g id="XMLID_6051_">
						<path fill="#E7E6E6" d="M6.364,157.497h182.893v4.698c0,0,0.272,0.625-1.881,0.47H8.084c0,0-1.683,0.468-1.84-0.626
							L6.364,157.497z"/>
					</g>
				</g>
			</g>
		</g>
		<rect x="34.993" y="73.64" fill="#8C8C8C" width="125.896" height="77.614"/>
		<rect x="44.146" y="78.242" fill="#FFFFFF" width="107.325" height="5.166"/>
	</g>
	<path d="M95.896,108.588l-20.227,20.227v10.015c0,1.842,1.494,3.338,3.339,3.338h3.336v-3.338h6.677v-6.677h6.678v-6.673h6.674
		l4.264-4.264C101.148,119.21,97.001,114.444,95.896,108.588z"/>
	<path fill="#DB901C" d="M112.388,122.141c9.218,0,16.692-7.476,16.692-16.692c0-9.219-7.475-16.691-16.692-16.691
		c-9.218,0-16.689,7.472-16.689,16.691c0,1.044,0.096,2.066,0.279,3.058l-0.081,0.081c1.103,5.856,5.252,10.622,10.741,12.626
		l0.069-0.069C108.479,121.788,110.393,122.141,112.388,122.141z M117.389,95.441c2.767,0,5.007,2.242,5.007,5.008
		c0,2.764-2.242,5.005-5.007,5.005c-2.765,0-5.007-2.243-5.007-5.005C112.381,97.682,114.624,95.441,117.389,95.441z"/>
</g>
<g>
	<rect x="485.285" y="64.5" fill="#2D2D2D" width="114" height="104.5"/>
	<polygon fill="#C9C8C8" points="579.285,52 505.285,52 485.285,64.5 599.285,64.5 	"/>
	<g id="XMLID_13_">
		<circle fill="#FFFFFF" cx="502.175" cy="126.392" r="4.904"/>
	</g>
	<g id="XMLID_14_">
		<circle fill="#FFFFFF" cx="502.175" cy="140.642" r="4.904"/>
	</g>
	<g id="XMLID_15_">
		<circle fill="#FFFFFF" cx="502.175" cy="154.892" r="4.904"/>
	</g>
	<rect x="498.035" y="75.25" fill="#DB901C" width="48.5" height="9.5"/>
</g>
<g>
	<g>
		<path fill="#2D2D2D" d="M496.502,299.605v24.938c0,3.289,20.498,5.956,45.783,5.956s45.783-2.667,45.783-5.956v-24.938H496.502z"
			/>
		<ellipse fill="#C9C9C9" cx="542.285" cy="299.605" rx="45.783" ry="5.955"/>
	</g>
	<g>
		<path fill="#2D2D2D" d="M496.502,267.594v24.939c0,3.289,20.498,5.956,45.783,5.956s45.783-2.667,45.783-5.956v-24.939H496.502z"
			/>
		<ellipse fill="#C9C9C9" cx="542.285" cy="267.594" rx="45.783" ry="5.955"/>
	</g>
	<g>
		<path fill="#2D2D2D" d="M496.502,235.956v24.938c0,3.288,20.498,5.955,45.783,5.955s45.783-2.667,45.783-5.955v-24.938H496.502z"
			/>
		<ellipse fill="#C9C9C9" cx="542.285" cy="235.956" rx="45.783" ry="5.956"/>
	</g>
	<polygon fill="#DB901C" points="503.501,260.75 503.501,242 499.751,241 499.751,259.75 	"/>
	<polygon fill="#DB901C" points="510.001,261.959 510.001,243.084 506.251,242.5 506.251,261.25 	"/>
	<polygon fill="#DB901C" points="516.501,262.626 516.501,243.834 512.751,243.375 512.751,262.292 	"/>
	<g id="XMLID_1_">
		<circle fill="#FFFFFF" cx="527.002" cy="254.499" r="4.904"/>
	</g>
</g>
<rect x="176" y="115" width="65" height="5.5"/>
<rect x="407" y="115" width="65" height="5.5"/>
<rect x="539.535" y="177.25" width="5.5" height="42.5"/>
<g>
	<path d="M52.205,186.496h9.006v1.812h-6.848v5.558h6.327v1.786h-6.327v7.567h-2.158V186.496z"/>
	<path d="M63.571,194.957c0-1.414-0.024-2.63-0.099-3.747h1.911l0.074,2.357h0.099c0.546-1.612,1.861-2.63,3.325-2.63
		c0.248,0,0.422,0.024,0.62,0.074v2.06c-0.223-0.05-0.446-0.074-0.744-0.074c-1.538,0-2.63,1.166-2.928,2.804
		c-0.049,0.297-0.099,0.645-0.099,1.017v6.401h-2.159V194.957z"/>
	<path d="M82.305,197.115c0,4.441-3.077,6.376-5.979,6.376c-3.25,0-5.756-2.382-5.756-6.178c0-4.019,2.63-6.376,5.955-6.376
		C79.973,190.938,82.305,193.443,82.305,197.115z M72.778,197.239c0,2.63,1.514,4.615,3.647,4.615c2.084,0,3.647-1.96,3.647-4.665
		c0-2.034-1.017-4.614-3.598-4.614C73.895,192.575,72.778,194.957,72.778,197.239z"/>
	<path d="M85.062,194.461c0-1.241-0.025-2.258-0.099-3.251h1.935l0.125,1.985h0.049c0.596-1.142,1.985-2.258,3.97-2.258
		c1.663,0,4.243,0.992,4.243,5.111v7.17h-2.183v-6.922c0-1.936-0.72-3.548-2.779-3.548c-1.439,0-2.556,1.017-2.928,2.232
		c-0.1,0.273-0.149,0.646-0.149,1.018v7.22h-2.184V194.461z"/>
	<path d="M101.367,187.762v3.448h3.126v1.663h-3.126v6.476c0,1.488,0.422,2.332,1.638,2.332c0.571,0,0.993-0.074,1.266-0.149
		l0.099,1.638c-0.422,0.174-1.092,0.298-1.936,0.298c-1.017,0-1.836-0.322-2.357-0.918c-0.62-0.646-0.843-1.712-0.843-3.126v-6.55
		h-1.861v-1.663h1.861v-2.878L101.367,187.762z"/>
	<path d="M108.018,197.611c0.05,2.953,1.936,4.168,4.119,4.168c1.563,0,2.506-0.272,3.325-0.62l0.372,1.563
		c-0.769,0.348-2.084,0.744-3.995,0.744c-3.697,0-5.905-2.432-5.905-6.054s2.134-6.476,5.632-6.476c3.92,0,4.962,3.448,4.962,5.657
		c0,0.446-0.05,0.794-0.075,1.017H108.018z M114.419,196.049c0.025-1.39-0.571-3.549-3.027-3.549c-2.208,0-3.176,2.035-3.35,3.549
		H114.419z"/>
	<path d="M119.235,194.461c0-1.241-0.025-2.258-0.099-3.251h1.935l0.125,1.985h0.049c0.596-1.142,1.985-2.258,3.97-2.258
		c1.663,0,4.243,0.992,4.243,5.111v7.17h-2.183v-6.922c0-1.936-0.72-3.548-2.779-3.548c-1.439,0-2.556,1.017-2.928,2.232
		c-0.1,0.273-0.149,0.646-0.149,1.018v7.22h-2.184V194.461z"/>
	<path d="M143.38,185.604v14.514c0,1.067,0.025,2.283,0.099,3.102h-1.96l-0.099-2.084h-0.05c-0.67,1.34-2.134,2.356-4.094,2.356
		c-2.903,0-5.136-2.456-5.136-6.103c-0.025-3.995,2.456-6.451,5.384-6.451c1.836,0,3.077,0.868,3.623,1.836h0.049v-7.17H143.38z
		 M141.196,196.098c0-0.272-0.024-0.645-0.099-0.918c-0.322-1.389-1.513-2.53-3.151-2.53c-2.258,0-3.598,1.984-3.598,4.64
		c0,2.432,1.191,4.441,3.548,4.441c1.464,0,2.804-0.968,3.201-2.605c0.075-0.298,0.099-0.596,0.099-0.942V196.098z"/>
</g>
<g>
	<path d="M499.984,15.72c0.943-0.198,2.432-0.348,3.945-0.348c2.158,0,3.547,0.372,4.59,1.216c0.868,0.646,1.389,1.638,1.389,2.952
		c0,1.613-1.066,3.027-2.828,3.673v0.049c1.588,0.397,3.449,1.712,3.449,4.193c0,1.439-0.571,2.53-1.414,3.35
		c-1.166,1.066-3.053,1.562-5.781,1.562c-1.488,0-2.631-0.099-3.35-0.198V15.72z M502.143,22.567h1.961
		c2.281,0,3.621-1.191,3.621-2.804c0-1.96-1.488-2.729-3.672-2.729c-0.992,0-1.562,0.075-1.91,0.149V22.567z M502.143,30.581
		c0.422,0.074,1.043,0.1,1.812,0.1c2.233,0,4.292-0.819,4.292-3.25c0-2.283-1.96-3.226-4.316-3.226h-1.787V30.581z"/>
	<path d="M520.01,32.219l-0.174-1.514h-0.074c-0.67,0.943-1.96,1.786-3.672,1.786c-2.432,0-3.672-1.712-3.672-3.448
		c0-2.903,2.58-4.491,7.22-4.466v-0.248c0-0.992-0.272-2.779-2.729-2.779c-1.116,0-2.282,0.348-3.126,0.894l-0.496-1.439
		c0.992-0.645,2.432-1.066,3.944-1.066c3.672,0,4.566,2.506,4.566,4.912v4.491c0,1.042,0.049,2.06,0.197,2.878H520.01z
		 M519.688,26.091c-2.382-0.05-5.086,0.372-5.086,2.704c0,1.414,0.942,2.084,2.059,2.084c1.563,0,2.556-0.992,2.902-2.01
		c0.075-0.223,0.125-0.472,0.125-0.694V26.091z"/>
	<path d="M533.883,31.772c-0.571,0.298-1.837,0.694-3.449,0.694c-3.623,0-5.979-2.456-5.979-6.128c0-3.697,2.53-6.377,6.45-6.377
		c1.291,0,2.432,0.323,3.027,0.62l-0.496,1.688c-0.521-0.298-1.34-0.57-2.531-0.57c-2.754,0-4.242,2.034-4.242,4.54
		c0,2.779,1.787,4.491,4.168,4.491c1.24,0,2.06-0.323,2.68-0.596L533.883,31.772z"/>
	<path d="M538.599,25.719h0.05c0.297-0.422,0.719-0.943,1.066-1.365l3.523-4.144h2.63l-4.64,4.938l5.285,7.071h-2.655l-4.144-5.756
		l-1.116,1.24v4.516h-2.159V14.604h2.159V25.719z"/>
	<path d="M549.295,26.611c0.05,2.953,1.936,4.168,4.119,4.168c1.562,0,2.506-0.272,3.324-0.62l0.372,1.563
		c-0.769,0.348-2.084,0.744-3.995,0.744c-3.696,0-5.904-2.432-5.904-6.054s2.134-6.476,5.632-6.476c3.921,0,4.962,3.448,4.962,5.657
		c0,0.446-0.049,0.794-0.074,1.017H549.295z M555.696,25.049c0.024-1.39-0.571-3.549-3.026-3.549c-2.209,0-3.176,2.035-3.35,3.549
		H555.696z"/>
	<path d="M560.512,23.461c0-1.241-0.024-2.258-0.099-3.251h1.935l0.125,1.985h0.049c0.596-1.142,1.985-2.258,3.971-2.258
		c1.662,0,4.242,0.992,4.242,5.111v7.17h-2.184v-6.922c0-1.936-0.719-3.548-2.778-3.548c-1.439,0-2.556,1.017-2.928,2.232
		c-0.1,0.273-0.149,0.646-0.149,1.018v7.22h-2.184V23.461z"/>
	<path d="M584.656,14.604v14.514c0,1.067,0.025,2.283,0.1,3.102h-1.96l-0.099-2.084h-0.051c-0.67,1.34-2.133,2.356-4.094,2.356
		c-2.902,0-5.135-2.456-5.135-6.103c-0.025-3.995,2.455-6.451,5.383-6.451c1.836,0,3.077,0.868,3.623,1.836h0.049v-7.17H584.656z
		 M582.473,25.098c0-0.272-0.023-0.645-0.099-0.918c-0.322-1.389-1.513-2.53-3.151-2.53c-2.258,0-3.598,1.984-3.598,4.64
		c0,2.432,1.191,4.441,3.549,4.441c1.463,0,2.803-0.968,3.2-2.605c0.075-0.298,0.099-0.596,0.099-0.942V25.098z"/>
</g>
<g>
	<path d="M495.716,352.72c1.315-0.198,2.878-0.348,4.59-0.348c3.102,0,5.31,0.72,6.773,2.084c1.489,1.365,2.356,3.3,2.356,6.005
		c0,2.729-0.844,4.962-2.406,6.5c-1.562,1.563-4.143,2.406-7.394,2.406c-1.538,0-2.828-0.074-3.92-0.198V352.72z M497.874,367.507
		c0.546,0.1,1.34,0.124,2.184,0.124c4.614,0,7.12-2.58,7.12-7.096c0.025-3.945-2.207-6.451-6.773-6.451
		c-1.115,0-1.959,0.1-2.53,0.224V367.507z"/>
	<path d="M518.818,369.219l-0.174-1.514h-0.074c-0.67,0.943-1.96,1.786-3.672,1.786c-2.432,0-3.672-1.712-3.672-3.448
		c0-2.903,2.58-4.491,7.22-4.466v-0.248c0-0.992-0.272-2.779-2.729-2.779c-1.116,0-2.282,0.348-3.126,0.894l-0.496-1.439
		c0.992-0.645,2.432-1.066,3.944-1.066c3.672,0,4.566,2.506,4.566,4.912v4.491c0,1.042,0.049,2.06,0.197,2.878H518.818z
		 M518.496,363.091c-2.382-0.05-5.086,0.372-5.086,2.704c0,1.414,0.942,2.084,2.059,2.084c1.563,0,2.556-0.992,2.902-2.01
		c0.075-0.223,0.125-0.472,0.125-0.694V363.091z"/>
	<path d="M526.662,353.762v3.448h3.126v1.663h-3.126v6.476c0,1.488,0.422,2.332,1.637,2.332c0.571,0,0.993-0.074,1.266-0.149
		l0.1,1.638c-0.422,0.174-1.092,0.298-1.936,0.298c-1.018,0-1.836-0.322-2.357-0.918c-0.619-0.646-0.843-1.712-0.843-3.126v-6.55
		h-1.86v-1.663h1.86v-2.878L526.662,353.762z"/>
	<path d="M538.895,369.219l-0.174-1.514h-0.074c-0.67,0.943-1.959,1.786-3.672,1.786c-2.432,0-3.672-1.712-3.672-3.448
		c0-2.903,2.58-4.491,7.221-4.466v-0.248c0-0.992-0.273-2.779-2.729-2.779c-1.116,0-2.282,0.348-3.126,0.894l-0.496-1.439
		c0.992-0.645,2.431-1.066,3.944-1.066c3.672,0,4.565,2.506,4.565,4.912v4.491c0,1.042,0.049,2.06,0.198,2.878H538.895z
		 M538.572,363.091c-2.382-0.05-5.086,0.372-5.086,2.704c0,1.414,0.943,2.084,2.059,2.084c1.564,0,2.557-0.992,2.903-2.01
		c0.075-0.223,0.124-0.472,0.124-0.694V363.091z"/>
	<path d="M544.108,369.219c0.05-0.818,0.099-2.034,0.099-3.102v-14.514h2.159v7.542h0.05c0.77-1.34,2.158-2.208,4.094-2.208
		c2.977,0,5.086,2.481,5.061,6.128c0,4.293-2.703,6.426-5.383,6.426c-1.737,0-3.127-0.669-4.02-2.257h-0.074l-0.1,1.984H544.108z
		 M546.366,364.405c0,0.273,0.05,0.546,0.099,0.794c0.422,1.514,1.688,2.556,3.275,2.556c2.283,0,3.647-1.86,3.647-4.615
		c0-2.406-1.241-4.466-3.573-4.466c-1.488,0-2.877,1.018-3.324,2.68c-0.05,0.248-0.124,0.546-0.124,0.894V364.405z"/>
	<path d="M564.978,369.219l-0.174-1.514h-0.074c-0.67,0.943-1.96,1.786-3.672,1.786c-2.432,0-3.673-1.712-3.673-3.448
		c0-2.903,2.581-4.491,7.221-4.466v-0.248c0-0.992-0.273-2.779-2.729-2.779c-1.116,0-2.282,0.348-3.126,0.894l-0.496-1.439
		c0.992-0.645,2.432-1.066,3.945-1.066c3.672,0,4.564,2.506,4.564,4.912v4.491c0,1.042,0.05,2.06,0.199,2.878H564.978z
		 M564.655,363.091c-2.382-0.05-5.087,0.372-5.087,2.704c0,1.414,0.943,2.084,2.06,2.084c1.563,0,2.556-0.992,2.903-2.01
		c0.074-0.223,0.124-0.472,0.124-0.694V363.091z"/>
	<path d="M569.992,366.985c0.646,0.422,1.787,0.869,2.879,0.869c1.588,0,2.332-0.794,2.332-1.787c0-1.042-0.621-1.612-2.233-2.208
		c-2.159-0.769-3.176-1.96-3.176-3.398c0-1.936,1.563-3.523,4.144-3.523c1.216,0,2.282,0.348,2.952,0.744l-0.546,1.588
		c-0.471-0.298-1.34-0.694-2.456-0.694c-1.29,0-2.01,0.744-2.01,1.638c0,0.992,0.72,1.438,2.282,2.034
		c2.084,0.794,3.151,1.836,3.151,3.622c0,2.109-1.638,3.598-4.491,3.598c-1.314,0-2.53-0.322-3.373-0.818L569.992,366.985z"/>
	<path d="M581.333,363.611c0.05,2.953,1.936,4.168,4.118,4.168c1.563,0,2.506-0.272,3.325-0.62l0.372,1.563
		c-0.77,0.348-2.084,0.744-3.994,0.744c-3.697,0-5.905-2.432-5.905-6.054s2.134-6.476,5.632-6.476c3.92,0,4.963,3.448,4.963,5.657
		c0,0.446-0.051,0.794-0.075,1.017H581.333z M587.734,362.049c0.025-1.39-0.57-3.549-3.027-3.549c-2.208,0-3.176,2.035-3.35,3.549
		H587.734z"/>
</g>
<g>
	<path d="M289.205,186.72c1.092-0.224,2.654-0.348,4.143-0.348c2.308,0,3.797,0.422,4.838,1.364
		c0.844,0.745,1.315,1.886,1.315,3.176c0,2.209-1.39,3.673-3.151,4.268v0.075c1.291,0.446,2.06,1.637,2.457,3.374
		c0.545,2.332,0.942,3.944,1.289,4.59h-2.232c-0.273-0.472-0.645-1.91-1.116-3.994c-0.497-2.308-1.39-3.176-3.35-3.251h-2.034v7.245
		h-2.158V186.72z M291.363,194.337h2.208c2.308,0,3.771-1.266,3.771-3.176c0-2.159-1.562-3.102-3.846-3.127
		c-1.041,0-1.785,0.1-2.133,0.199V194.337z"/>
	<path d="M311.215,195.379h-6.5v6.028h7.244v1.812h-9.402v-16.723h9.031v1.812h-6.873v5.284h6.5V195.379z"/>
	<path d="M314.468,200.589c0.968,0.596,2.382,1.092,3.87,1.092c2.209,0,3.498-1.166,3.498-2.854c0-1.563-0.893-2.456-3.15-3.324
		c-2.729-0.968-4.416-2.382-4.416-4.739c0-2.605,2.158-4.54,5.408-4.54c1.713,0,2.953,0.396,3.697,0.818l-0.596,1.762
		c-0.546-0.298-1.662-0.794-3.176-0.794c-2.283,0-3.15,1.364-3.15,2.506c0,1.563,1.017,2.332,3.324,3.226
		c2.828,1.092,4.268,2.456,4.268,4.912c0,2.581-1.91,4.813-5.855,4.813c-1.613,0-3.375-0.472-4.268-1.066L314.468,200.589z"/>
	<path d="M330.176,188.332h-5.086v-1.836h12.381v1.836h-5.111v14.887h-2.184V188.332z"/>
	<path d="M339.483,203.219v-10.346h-1.688v-1.663h1.688v-0.57c0-1.688,0.372-3.226,1.39-4.193c0.818-0.794,1.91-1.116,2.928-1.116
		c0.769,0,1.438,0.174,1.86,0.348l-0.298,1.687c-0.322-0.148-0.77-0.272-1.389-0.272c-1.861,0-2.333,1.638-2.333,3.474v0.645h2.903
		v1.663h-2.903v10.346H339.483z"/>
	<path d="M356.555,199.943c0,1.241,0.025,2.333,0.1,3.275h-1.936l-0.124-1.96h-0.05c-0.57,0.968-1.836,2.232-3.969,2.232
		c-1.887,0-4.145-1.042-4.145-5.26v-7.021h2.184v6.649c0,2.283,0.695,3.821,2.68,3.821c1.464,0,2.48-1.018,2.878-1.985
		c0.124-0.322,0.198-0.719,0.198-1.116v-7.369h2.184V199.943z"/>
	<path d="M360.181,185.604h2.184v17.615h-2.184V185.604z"/>
</g>
</svg>
